<svg xmlns:xlink="http://www.w3.org/1999/xlink" id="link-2" xmlns="http://www.w3.org/2000/svg" width="1024"
  height="1024" viewBox="0 0 1024 1024" class="w-12 h-12 sm:w-16 sm:h-16 inline-block">
  <defs>
    <linearGradient id="bgGradient-link" x1="15%" y1="15%" x2="85%" y2="85%" gradientUnits="userSpaceOnUse">
      <stop offset="0%" style="stop-color: rgb(31, 144, 234); stop-opacity: 1;"></stop>
      <stop offset="100%" style="stop-color: rgb(31, 225, 234); stop-opacity: 1;"></stop>
    </linearGradient>
    <linearGradient id="bgGradient-link" x1="15%" y1="15%" x2="85%" y2="85%" gradientUnits="userSpaceOnUse">
      <stop offset="0%" style="stop-color: rgb(31, 144, 234); stop-opacity: 1;"></stop>
      <stop offset="100%" style="stop-color: rgb(31, 225, 234); stop-opacity: 1;"></stop>
    </linearGradient>
  </defs>
  <path fill="url(&quot;#bgGradient-link&quot;)"
    d="M844,1024H180C80.589,1024,0,943.411,0,844l0-664C0,80.589,80.589,0,180,0l664,0c99.411,0,180,80.589,180,180v664C1024,943.411,943.411,1024,844,1024z">
  </path><svg viewBox="0 0 24 24" width="610" aria-hidden="true" focusable="false" fill="#F4F4F4"
    xmlns="http://www.w3.org/2000/svg" filter="none" stroke="#000000" stroke-width="0px" x="207"
    class="StyledIconBase-ea9ulj-0 jZGNBW" stroke-opacity="0">
    <g data-name="Layer 2" stroke="#000000" fill="#F4F4F4" stroke-width="0px" stroke-opacity="0">
      <g data-name="link-2" stroke="#000000" fill="#F4F4F4" stroke-width="0px" stroke-opacity="0">
        <path d="M13.29 9.29l-4 4a1 1 0 000 1.42 1 1 0 001.42 0l4-4a1 1 0 00-1.42-1.42z" stroke="#000000" fill="#F4F4F4"
          stroke-width="0px" stroke-opacity="0"></path>
        <path
          d="M12.28 17.4L11 18.67a4.2 4.2 0 01-5.58.4 4 4 0 01-.27-5.93l1.42-1.43a1 1 0 000-1.42 1 1 0 00-1.42 0l-1.27 1.28a6.15 6.15 0 00-.67 8.07 6.06 6.06 0 009.07.6l1.42-1.42a1 1 0 00-1.42-1.42zM19.66 3.22a6.18 6.18 0 00-8.13.68L10.45 5a1.09 1.09 0 00-.17 1.61 1 1 0 001.42 0L13 5.3a4.17 4.17 0 015.57-.4 4 4 0 01.27 5.95l-1.42 1.43a1 1 0 000 1.42 1 1 0 001.42 0l1.42-1.42a6.06 6.06 0 00-.6-9.06z"
          stroke="#000000" fill="#F4F4F4" stroke-width="0px" stroke-opacity="0"></path>
      </g>
    </g>
  </svg>
</svg>

